# xmcd
#
# Track frame offsets: 
#        150
#        10409
#        21117
#        31902
#        41811
#        51118
#        62761
#        73844
#        83326
#        93775
#        107163
#        120325
#        132968
#        146071
#
# Disc length: 2100 seconds
#
# Revision: 0
# Processed by: cddbd v1.5.2PL0 Copyright (c) Steve Scherf et al.
# Submitted via: ExactAudioCopy v0.99pb5
#
DISCID=b608320e
DTITLE=Retro and Smiling and The Tennis Shoe Cut-ups - Wanted - For Impers
DTITLE=onating Real Musicians
DYEAR=2008
DGENRE=Bluegrass
TTITLE0=I Never Get To Hold You In My Arms Anymore
TTITLE1=Trail Of Sorrow
TTITLE2=Limehouse Blues
TTITLE3=I Wouldn't Change You If I Could
TTITLE4=Howdy Neighbor Howdy
TTITLE5=I Know You're Married
TTITLE6=One Tear Drop
TTITLE7=Your Love Is Dying
TTITLE8=Freight Train Boogie
TTITLE9=In The Garden
TTITLE10=Remington Ride
TTITLE11=Emotions
TTITLE12=Talk Of The Town
TTITLE13=It's Grand To Have Someone To Love You
EXTD=
EXTT0=
EXTT1=
EXTT2=
EXTT3=
EXTT4=
EXTT5=
EXTT6=
EXTT7=
EXTT8=
EXTT9=
EXTT10=
EXTT11=
EXTT12=
EXTT13=
PLAYORDER=
